# xmcd CD database file
#
# Track frame offsets:
#	150
#	23740
#	35588
#	56310
#	72359
#	94121
#	105201
#	123881
#	143224
#	158907
#	181424
#
# Disc length: 2684 seconds
#
# Revision: 3
# Processed by: cddbd v1.5.2PL0 Copyright (c) Steve Scherf et al.
# Submitted via: CDex 1.78
#
DISCID=880a7a0b
DTITLE=The Dustin Bentall Outfit - Six Shooter
DYEAR=2009
DGENRE=Folk
TTITLE0=Railroad
TTITLE1=Take The Money
TTITLE2=Three Thousand Miles
TTITLE3=Pontiac
TTITLE4=Draft Dodger
TTITLE5=Six Shooter
TTITLE6=Arizona
TTITLE7=Secrets
TTITLE8=Little Bird In A Big Wind
TTITLE9=The Sweetest Of Hearts
TTITLE10=Deserts Of Our Minds
EXTD=YEAR: 2009
EXTT0=
EXTT1=
EXTT2=
EXTT3=
EXTT4=
EXTT5=
EXTT6=
EXTT7=
EXTT8=
EXTT9=
EXTT10=
PLAYORDER=
